<?xml version="1.0" encoding="utf-8"?>
<!-- Generator: Adobe Illustrator 25.3.1, SVG Export Plug-In . SVG Version: 6.00 Build 0)  -->
<svg version="1.1" id="Layer_1" xmlns="http://www.w3.org/2000/svg" xmlns:xlink="http://www.w3.org/1999/xlink" x="0px" y="0px"
	 viewBox="0 0 250 250" style="enable-background:new 0 0 250 250;" xml:space="preserve">
<style type="text/css">
	.st0{fill:#3AB561;}
	.st1{fill:#202020;}
	.st2{fill:#FFFFFF;}
	.st3{fill:#4A95F7;}
	.st4{fill:#6CC6FF;}
	.st5{fill:#CCEEFF;}
</style>
<circle class="st4" cx="125" cy="125" r="125"/>
<g>
	<g>
		<path class="st5" d="M49.3,123.7c3.7,0,7.4,0,11.2,0c1.4,0,2.9,0,4.3,0.4c2.2,0.6,3.6,2,4.1,4.2c0.5,2.2,0.1,4.1-1.6,5.7
			c-0.6,0.5-1.3,0.8-2,1.1c2.9,0.9,4.6,3.6,4.2,6.7c-0.4,3.1-2.8,5.4-6,5.5c-4.7,0.1-9.4,0-14.2,0C49.3,139.4,49.3,131.6,49.3,123.7
			z"/>
		<path class="st5" d="M112.5,136.8c0-1.1,0-1.9,0-2.6c0-3.1,0-6.3,0-9.4c0-0.7,0.2-0.9,0.9-0.9c1.5,0.1,3.1,0.1,4.6,0
			c0.5,0,0.7,0.1,0.7,0.7c0,7.4,0,14.8,0,22.2c0,0.6-0.2,0.7-0.7,0.7c-1.5,0-3-0.1-4.5,0c-0.7,0-0.9-0.4-1.2-0.8
			c-2.8-3.9-5.7-7.7-8.5-11.6c-0.2-0.3-0.5-0.7-0.9-1.2c0,1.9,0,3.6,0,5.3c0,2.4,0,4.9,0,7.3c0,0.9-0.3,1.2-1.2,1.1
			c-1.4-0.1-2.9-0.1-4.3-0.1c-0.6,0-0.7-0.2-0.7-0.8c0-7.4,0-14.7,0-22.1c0-0.6,0.2-0.7,0.7-0.7c1.6,0,3.2,0,4.8,0
			c0.6,0,0.9,0.2,1.2,0.7C106.4,128.5,109.4,132.5,112.5,136.8z"/>
		<path class="st5" d="M121.2,135.5c0-3.6,0-7.2,0-10.8c0-0.3-0.2-0.9,0.5-0.8c4.1,0.1,8.2-0.3,12.2,0.3c6.3,0.9,10.3,5.9,9.9,12.2
			c-0.4,6.8-4.9,10.2-10.6,10.9c-3.8,0.5-7.6,0.2-11.5,0.1c-0.8,0-0.6-0.5-0.6-0.9C121.2,142.8,121.2,139.2,121.2,135.5
			C121.2,135.5,121.2,135.5,121.2,135.5z"/>
		<path class="st5" d="M162.6,135.5c0-3.6,0-7.2,0-10.7c0-0.7,0.2-1,0.9-1c5.2,0,10.4,0.1,15.6,0c0.6,0,0.9,0.1,0.9,0.8
			c-0.1,1.2-0.1,2.4,0,3.5c0,0.9-0.3,1-1.1,1c-3-0.1-6.1,0-9.1,0c-0.8,0-1.1,0.1-1,1c0.1,0.8-0.4,2,0.2,2.5c0.5,0.4,1.6,0.2,2.5,0.2
			c2.5,0,5,0.1,7.5,0.1c0.7,0,0.8,0.2,0.8,0.8c-0.1,1.2-0.1,2.4,0,3.5c0,0.7-0.2,1-0.9,1c-3,0-6.1,0-9.1,0c-0.8,0-1,0.2-0.9,0.9
			c0.1,1-0.4,2.3,0.2,2.9c0.6,0.5,1.8,0.1,2.8,0.2c2.4,0,4.9,0,7.3,0c0.7,0,1,0.1,0.9,0.9c-0.1,1.1-0.1,2.3,0,3.4
			c0,0.8-0.1,1.1-1,1.1c-5.1-0.1-10.2-0.1-15.3-0.1c-0.7,0-1-0.2-1-0.9C162.6,142.8,162.6,139.2,162.6,135.5z"/>
		<path class="st5" d="M93.6,132.3c-0.1,2.2,0.2,4.9-0.2,7.6c-0.6,3.9-3.1,6.6-6.9,7.5c-2.7,0.6-5.3,0.8-8,0
			c-4.6-1.3-7.1-4.4-7.2-9.2c-0.1-4.5,0-9,0-13.5c0-0.6,0.1-0.8,0.8-0.8c1.5,0.1,3.1,0.1,4.6,0c0.7,0,0.9,0.2,0.9,0.9
			c0,4.3,0,8.6,0,13c0,2.5,1.4,4.1,3.8,4.6c2.6,0.5,4.9-0.5,5.8-2.6c0.3-0.8,0.4-1.7,0.4-2.5c0-4.1,0-8.3,0-12.4c0-0.7,0.2-1,0.9-1
			c1.5,0.1,3,0.1,4.5,0c0.6,0,0.8,0.2,0.8,0.8C93.6,127.1,93.6,129.5,93.6,132.3z"/>
		<path class="st5" d="M183.5,139.6c1.4,1.2,3,2.3,4.8,2.7c1.5,0.4,3.1,0.7,4.6,0.1c0.8-0.3,1.5-0.7,1.4-1.6c0-0.9-0.8-1.3-1.5-1.5
			c-1.9-0.5-3.9-0.9-5.8-1.4c-2.5-0.7-4.7-1.8-5.6-4.4c-1.4-3.8,0.8-8,4.9-9.2c4.7-1.4,9.1-0.7,13.2,2.1c0.5,0.4,0.6,0.7,0.2,1.2
			c-0.8,1-1.7,2.1-2.4,3.1c-0.4,0.5-0.6,0.5-1.1,0.2c-1.6-1.2-3.5-1.8-5.5-2c-0.6-0.1-1.1,0-1.7,0.1c-0.9,0.1-1.5,0.5-1.6,1.4
			c-0.1,0.9,0.6,1.3,1.3,1.4c1.8,0.5,3.7,0.9,5.5,1.4c1.7,0.5,3.4,1,4.7,2.4c2.8,2.9,2.3,8.1-1.1,10.5c-2.1,1.5-4.6,2-7.1,1.9
			c-3.4-0.1-6.6-0.9-9.5-2.9c-0.8-0.5-0.9-1-0.3-1.7C181.8,142.1,182.6,140.8,183.5,139.6z"/>
		<path class="st5" d="M145.4,135.7c0-3.6,0-7.2,0-10.8c0-0.7,0.1-1,0.9-1c1.4,0.1,2.7,0.1,4.1,0c0.9,0,1.1,0.2,1.1,1.1
			c0,5.3,0,10.7,0,16c0,0.9,0.2,1.2,1.2,1.2c2.5-0.1,5.1,0,7.6,0c0.6,0,0.8,0.2,0.8,0.8c0,1.3,0,2.6,0,3.9c0,0.6-0.2,0.7-0.7,0.7
			c-4.7,0-9.4-0.1-14.2-0.1c-0.7,0-0.7-0.3-0.7-0.8C145.4,142.9,145.4,139.3,145.4,135.7z"/>
		<path class="st4" d="M55.5,142.4c-0.5,0-0.6-0.2-0.6-0.6c0-1,0-2,0-3c0-0.4,0.1-0.6,0.6-0.6c2,0,3.9,0,5.9,0.1
			c1.2,0.1,1.9,0.9,1.9,2.1c0,1.1-0.7,1.9-1.9,2c-1,0.1-2.1,0-3.1,0"/>
		<path class="st4" d="M58.3,133c-0.8,0-1.6-0.1-2.4,0c-0.9,0.1-1.1-0.3-1-1.1c0.1-0.9-0.3-2.2,0.2-2.7c0.5-0.6,1.8-0.2,2.8-0.2
			c1.1,0,2.1,0,3.2,0.1c1.3,0.1,1.9,0.9,1.8,2c-0.1,1-0.7,1.7-1.9,1.7C60.1,133,59.2,133,58.3,133C58.3,133,58.3,133,58.3,133z"/>
		<path class="st4" d="M127.3,135.6c0-1.9,0-3.8,0-5.7c0-0.5,0.1-0.7,0.7-0.8c1.3-0.1,2.6,0,4,0.1c3.3,0.2,5.5,2.4,5.7,5.6
			c0.3,3.6-1.6,6.4-4.8,7.1c-1.7,0.4-3.3,0.2-5,0.2c-0.5,0-0.5-0.3-0.5-0.7C127.3,139.5,127.3,137.6,127.3,135.6z"/>
	</g>
	<g id="xjj5JP.tif_1_">
		<g>
			<path class="st2" d="M140.7,137.6c-0.1-0.1-0.2-0.2-0.3-0.2c-2.6-0.6-3.8-3.4-3.1-5.8c0.9-2.8,2.5-5.2,4.4-7.4
				c1.2-1.4,2.4-2.7,3.8-3.9c0.7-0.6,0.2-1.4,0.4-2.2c-0.5,0.3-0.9,0.6-1.4,0.9c-2.2,1.3-4.8,0.9-6.4-1.1c-0.5-0.6-0.8-0.5-1.3-0.2
				c-1.6,1.1-3.4,1.7-5.3,2.1c-1.7,0.3-3.2-0.4-3.9-2c-0.3-0.7-0.7-0.4-1-0.2c-3.2,1.4-6.4,2.4-10,2.3c-2.1,0-4-0.5-5-2.7
				c-0.3-0.6-0.6-0.1-0.8,0c-1.6,1-3.4,1.9-5.2,2.3c-4.3,1.1-8.2-1.1-9-5.5c-0.9-4.6,0.5-8.8,4-11.9c2.2-2,5.7-1.8,7.6,0.1
				c1.2,1.3,1.7,2.8,1.1,4.6c-1.1,3.4-3.6,5.4-6.9,6.6c-1.1,0.4-1.2,0.6-0.3,1.4c0.7,0.7,1.5,0.8,2.4,0.6c4-0.7,6.9-3.1,9.4-6.1
				c1.8-2.2,3.5-4.5,5.2-6.8c1.2-1.5,2.6-2.1,4.2-1.6c1.1,0.3,1.6,1.3,1.1,2.4c-0.3,0.8-0.9,1.5-1.6,2c-0.7,0.7-0.8,1.4-0.6,2.3
				c0.1,0.3,0.2,0.6,0.3,1c0.4,1.5,0.9,3.1,0.5,4.7c-0.1,0.5,0,1,0,1.6c1.4-0.7,2.8-1.3,4.1-2c0.3-0.2,0.4-0.5,0.5-0.8
				c0.5-3.1,1.6-6,2.3-9c0.4-1.4,2.7-2.6,4.1-2.1c0.9,0.3,0.9,1,0.8,1.7c-0.3,1.7-0.9,3.4-1.4,5.1c-0.6,2.1-1.2,4.3-1.3,6.5
				c-0.1,2,0.6,2.5,2.5,1.5c0.5-0.3,1-0.7,1.6-1c0.3-0.2,0.3-0.4,0.4-0.8c0.5-3.8,2-7.2,4.3-10.2c1.2-1.5,2.7-2.5,4.6-2.9
				c0.8-0.2,1.6-0.1,2.2,0.6c0.6,0.7,1.4,0.9,2.3,0.9c1.4,0,1.7,0.2,1.9,1.6c0.2,1.7,0.1,3.5-0.3,5.2c-0.8,2.9-0.8,5.8-1.2,8.9
				c1.5-0.7,2.4-1.8,3.3-2.8c1.1-1.3,2.1-2.8,3-4.3c0.5-0.7,0.3-1.6,0.4-2.4c0.4-1.7,0.6-3.4,0.9-5.1c0.2-1.1,0.6-2,1.8-2.4
				c1.5-0.4,2.4,0.2,2.5,1.7c0.1,1.8-0.4,3.5-0.5,5.2c0,0.4-0.1,0.8-0.1,1.4c0.7-0.2,0.8-0.8,1-1.3c0.6-1.8,1.6-3.4,2.5-5.1
				c0.3-0.5,0.6-1,1.1-1.4c0.9-0.7,2.5-0.9,3.2-0.4c1.1,0.7,1.2,1.9,1.1,3c-0.3,2.7-1,5.3-1.1,8.1c0,0.8-0.1,1.5,0.2,2.3
				c0.4,1.1,0.9,1.3,1.9,0.8c1-0.5,1.9-1.1,2.9-1.8c0,1.3,0,2.5,0,3.7c0,0.2-0.1,0.4-0.3,0.5c-1.7,0.9-3.3,1.9-5.3,2.2
				c-0.9,0.1-1.7-0.1-2.2-1c-0.7-1.2-0.9-2.5-1-3.8c-0.1-1.8,0-3.5,0.3-5.2c0.1-0.3,0.1-0.7,0.1-1.1c-0.5,0.1-0.5,0.4-0.6,0.7
				c-1.4,2.8-2.8,5.6-4.2,8.4c-0.2,0.4-0.4,0.8-0.7,1.2c-0.5,0.7-1.2,1.1-2.1,0.9c-0.9-0.2-1.5-0.8-1.8-1.7
				c-0.1-0.3-0.1-0.6-0.2-0.9c-0.3,0-0.5,0.2-0.6,0.4c-1.2,1.2-2.5,2.4-4.1,3.2c-1.4,0.7-1.9,1.9-2.1,3.4c-0.2,2.2-0.4,4.4-0.9,6.6
				c-0.8,3.3-2.3,5.9-5.8,6.9C142.4,137.6,141.6,137.6,140.7,137.6z"/>
			<path class="st2" d="M70,116c0.2-5.2,0.4-10.4,1.8-15.5c0.6-2.1,1.3-4.1,2.5-5.9c1-1.4,3.8-1.7,4.9-0.4c0.3,0.3,0.3,0.5,0.1,0.9
				c-2,3.1-2.7,6.7-3.2,10.3c-0.4,3-0.8,5.9-1.1,8.9c-0.1,0.7-0.1,1.4,0,2.1c0.1,1.2,0.5,1.6,1.7,1.6c2.5,0,4.7-1,6.6-2.5
				c3.1-2.5,4.7-5.9,5.7-9.6c0.7-2.5,1.1-5.1,0.7-7.7c-0.6-3.2-2.4-5.4-5.5-6.5c-4.2-1.4-8.3-0.8-12.3,0.8c-1,0.4-1.7,1.2-2.3,2.2
				c-0.7,1.2-1.5,2.3-2.4,3.3c-0.3,0.4-0.7,1-1.4,0.8c-0.6-0.2-0.6-0.9-0.7-1.4c-0.4-3.5,1.7-7.4,4.9-9c3.2-1.7,6.6-2,10.1-1.8
				c2.4,0.2,4.7,0.5,7,1.5c4.8,2.1,7.2,5.8,7.4,10.9c0.3,6-1.2,11.6-4.9,16.4c-2.9,3.8-6.8,6-11.6,6.3c-2.6,0.2-5-0.7-7.4-1.6
				c-0.5-0.2-0.7-0.6-0.7-1.2C70,117.8,70,116.9,70,116z"/>
			<path class="st2" d="M134.7,92.2c1.3,0,2.5,0.2,3.1,1.4c0.6,1.1,0.3,2.3-0.4,3.3c-0.9,1.2-2.2,1.6-3.7,1.4
				c-1.7-0.2-2.9-1.6-2.8-3.1c0.1-1.6,1.5-2.9,3.1-3.1C134.3,92.3,134.5,92.2,134.7,92.2z"/>
			<path class="st4" d="M141.5,113c0.4-3.2,1.9-5.7,4-8c0.2-0.3,0.6-0.4,0.9-0.5c0.3-0.1,0.7-0.2,1,0c0.3,0.3,0.1,0.6,0,0.9
				c-0.5,2.3-1.1,4.6-1.5,7c-0.2,1-0.6,2-1.2,2.8c-0.4,0.5-0.9,0.9-1.6,0.8c-0.7-0.1-1-0.6-1.2-1.2
				C141.7,114.2,141.6,113.6,141.5,113z"/>
			<path class="st4" d="M118.8,112.4c0,0.7,0,1.4,0,2.1c-0.2,2-2.2,2.9-3.8,1.8c0,0-0.1,0-0.1-0.1c-1.4-1-1.2-0.9-0.3-2.2
				c1-1.4,2.1-2.7,3.2-4c0.2-0.2,0.3-0.5,0.6-0.5c0.3,0.1,0.3,0.5,0.3,0.8C118.8,111,118.8,111.7,118.8,112.4z"/>
			<path class="st4" d="M145.7,125.8c-0.3,2.2-0.6,4.4-1.8,6.5c-0.3,0.6-0.7,1.2-1.4,1.4c-0.5,0.2-0.9,0.2-1.3-0.1
				c-0.4-0.3-0.3-0.8-0.2-1.2c0.5-1.6,1.2-3.1,2.1-4.5c0.5-0.9,1.1-1.8,1.8-2.5c0.2-0.2,0.3-0.5,0.6-0.4
				C145.8,125.2,145.6,125.6,145.7,125.8z"/>
			<path class="st4" d="M101.1,109.4c0.2-1.3,0.6-2.8,1.6-4c0.7-0.9,2.2-1.3,2.8-0.8c0.7,0.5,0.7,1.9,0.1,2.9
				c-0.9,1.3-2,2.4-3.6,2.8C101.2,110.6,101,110.5,101.1,109.4z"/>
		</g>
	</g>
</g>
</svg>
