<svg id="Layer_1" data-name="Layer 1" xmlns="http://www.w3.org/2000/svg" width="250" height="250" viewBox="0 0 250 250"><defs><style>.cls-1{fill:#3785d3;}.cls-2{fill:#fff;}</style></defs><circle class="cls-1" cx="125" cy="125" r="125"/><path class="cls-2" d="M163.42,58.41H90.85A12.27,12.27,0,0,0,78.59,70.67V114a35.3,35.3,0,0,0,6.78,70h78a12.27,12.27,0,0,0,12.26-12.26v-101A12.27,12.27,0,0,0,163.42,58.41ZM55,148.63A30.41,30.41,0,1,1,85.37,179,30.44,30.44,0,0,1,55,148.63Zm40.29-35.79V107a2.46,2.46,0,0,1,2.45-2.46h5.89a2.46,2.46,0,0,1,2.45,2.46v5.88a2.45,2.45,0,0,1-2.45,2.45H97.71A2.45,2.45,0,0,1,95.26,112.84Zm75.51,58.84a7.36,7.36,0,0,1-7.35,7.36H103.3a35.63,35.63,0,0,0,13.54-14.4v1.16a7.36,7.36,0,0,0,7.35,7.35h5.89a7.36,7.36,0,0,0,7.35-7.35v-5.89a7.36,7.36,0,0,0-7.35-7.35h-5.89a7.28,7.28,0,0,0-3.87,1.1,36.2,36.2,0,0,0,.36-5c0-1,0-2-.12-2.92a7.31,7.31,0,0,0,3.63,1h5.89a7.36,7.36,0,0,0,7.35-7.35v-5.89a7.36,7.36,0,0,0-7.35-7.35h-5.89a7.37,7.37,0,0,0-7.32,6.62,35.45,35.45,0,0,0-11.07-12.84,7.36,7.36,0,0,0,5.15-7V107a7.36,7.36,0,0,0-7.35-7.36H97.71A7.36,7.36,0,0,0,90.36,107v5.88a7.92,7.92,0,0,0,0,.85,34.87,34.87,0,0,0-5-.36c-.63,0-1.25,0-1.87,0V70.67a7.36,7.36,0,0,1,7.35-7.35h72.57a7.36,7.36,0,0,1,7.35,7.35Zm-49-5.88v-5.89a2.45,2.45,0,0,1,2.45-2.45h5.89a2.45,2.45,0,0,1,2.45,2.45v5.89a2.45,2.45,0,0,1-2.45,2.45h-5.89A2.45,2.45,0,0,1,121.74,165.8Zm0-26.48v-5.89a2.45,2.45,0,0,1,2.45-2.45h5.89a2.45,2.45,0,0,1,2.45,2.45v5.89a2.45,2.45,0,0,1-2.45,2.45h-5.89A2.45,2.45,0,0,1,121.74,139.32Z"/><path class="cls-2" d="M161.46,69.2H138.17a2.45,2.45,0,1,0,0,4.9H159V88.81H95.26V74.1H116.1a2.45,2.45,0,0,0,0-4.9H92.81a2.45,2.45,0,0,0-2.45,2.45V91.27a2.45,2.45,0,0,0,2.45,2.45h68.65a2.45,2.45,0,0,0,2.45-2.45V71.65A2.45,2.45,0,0,0,161.46,69.2Z"/><path class="cls-2" d="M130.08,99.6h-5.89a7.36,7.36,0,0,0-7.35,7.36v5.88a7.36,7.36,0,0,0,7.35,7.36h5.89a7.36,7.36,0,0,0,7.35-7.36V107A7.36,7.36,0,0,0,130.08,99.6Zm2.45,13.24a2.45,2.45,0,0,1-2.45,2.45h-5.89a2.45,2.45,0,0,1-2.45-2.45V107a2.46,2.46,0,0,1,2.45-2.46h5.89a2.46,2.46,0,0,1,2.45,2.46Z"/><path class="cls-2" d="M156.55,99.6h-5.88a7.36,7.36,0,0,0-7.35,7.36v5.88a7.36,7.36,0,0,0,7.35,7.36h5.88a7.37,7.37,0,0,0,7.36-7.36V107A7.37,7.37,0,0,0,156.55,99.6ZM159,112.84a2.46,2.46,0,0,1-2.46,2.45h-5.88a2.45,2.45,0,0,1-2.45-2.45V107a2.46,2.46,0,0,1,2.45-2.46h5.88A2.46,2.46,0,0,1,159,107Z"/><path class="cls-2" d="M156.55,126.08h-5.88a7.36,7.36,0,0,0-7.35,7.35V165.8a7.36,7.36,0,0,0,7.35,7.35h5.88a7.36,7.36,0,0,0,7.36-7.35V133.43A7.36,7.36,0,0,0,156.55,126.08ZM159,165.8a2.46,2.46,0,0,1-2.46,2.45h-5.88a2.45,2.45,0,0,1-2.45-2.45V133.43a2.45,2.45,0,0,1,2.45-2.45h5.88a2.46,2.46,0,0,1,2.46,2.45Z"/><path class="cls-2" d="M127.13,74.1a2.45,2.45,0,0,0,1.74-4.18,2.46,2.46,0,0,0-4.19,1.73,2.44,2.44,0,0,0,2.45,2.45Z"/><path class="cls-2" d="M93.37,132.5a2.46,2.46,0,0,0-3.28,1.13L76.6,161.41a2.46,2.46,0,0,0,1.14,3.28,2.4,2.4,0,0,0,1.07.25,2.43,2.43,0,0,0,2.2-1.39L94.5,135.78a2.45,2.45,0,0,0-1.13-3.28Z"/><path class="cls-2" d="M79.18,131.12a7.84,7.84,0,1,0,0,11.1A7.86,7.86,0,0,0,79.18,131.12Zm-3.47,7.63a2.94,2.94,0,1,1,0-4.16A2.94,2.94,0,0,1,75.71,138.75Z"/><path class="cls-2" d="M92,155.05a7.84,7.84,0,0,0,5.55,13.39,7.78,7.78,0,0,0,5.54-2.29A7.85,7.85,0,0,0,92,155.05Zm7.63,7.63a2.95,2.95,0,1,1-2.08-5,2.92,2.92,0,0,1,2.08.86,3,3,0,0,1,0,4.16Z"/><rect class="cls-2" x="110.63" y="69.2" width="29.24" height="4.9"/></svg>