<?xml version="1.0" encoding="utf-8"?>
<!-- Generator: Adobe Illustrator 25.2.3, SVG Export Plug-In . SVG Version: 6.00 Build 0)  -->
<svg version="1.1" id="Layer_1" xmlns="http://www.w3.org/2000/svg" xmlns:xlink="http://www.w3.org/1999/xlink" x="0px" y="0px"
	 viewBox="0 0 32 32" style="enable-background:new 0 0 32 32;" xml:space="preserve">
<style type="text/css">
	.st0{fill:#1EBFCB;}
</style>
<path class="st0" d="M16,0C7.2,0,0,7.2,0,16s7.2,16,16,16s16-7.2,16-16S24.8,0,16,0z M9.3,10.2c1,0,1.8,0.7,1.9,1.6
	c0.1,0.8-0.2,1.5-1.1,1.9c-0.5,0.2-0.6,0.2-0.7,0.1c0-0.1,0-0.2,0.1-0.3c0.8-0.7,0.8-1.2,0.7-2c0-0.5-0.4-0.8-0.8-0.8
	c-1.6,0-3.9,3.6-3.6,6.2c0.1,1,0.7,2.2,2,2.2c0.4,0,0.9-0.1,1.3-0.3c0.7-0.4,1.1-0.6,1.5-1.1c-0.1-1.2,0.9-2.7,2.5-2.7
	c0.7,0,1.2,0.3,1.3,0.8c0.1,0.7-0.5,0.8-0.7,0.8c-0.2,0-0.5,0-0.5-0.2c0-0.2,0.4-0.1,0.4-0.5c0-0.3-0.3-0.4-0.6-0.4
	c-1,0-1.5,1.3-1.4,2.1c0,0.4,0.2,0.7,0.6,0.7c0.3,0,0.7-0.4,0.8-1c0.1-0.4,0.5-0.7,0.8-0.7c0.1,0,0.2,0,0.3,0.2V17
	c0,0.2-0.2,0.7-0.1,0.9c0,0.1,0,0.2,0.2,0.2c0.1,0,0.6-0.2,1-0.6c0.2-0.8,0.3-1.7,0.3-1.8c0-0.3,0.2-0.6,0.8-0.6
	c0.1,0,0.2,0,0.3,0.2v0.2l-0.2,0.8c0.6-0.8,1.5-1.3,2-1.3c0.2,0,0.4,0.1,0.4,0.4c0,0.1,0,0.4-0.1,0.6c-0.2,0.5-0.4,1.3-0.5,2
	c0,0.2,0,0.4,0.3,0.4s0.9-0.3,1.5-1l0,0c0-0.1,0-0.2,0-0.3c0-0.6,0-1,0.1-1.3c0.1-0.4,0.5-0.7,0.8-0.7c0.1,0,0.3,0.1,0.3,0.2
	c0,0,0,0.1,0,0.2c-0.2,0.6-0.3,1.1-0.3,1.7c0,0.3,0,0.8,0.1,1.1c0,0,0,0.1,0.1,0.1c0.1,0,0.7-0.6,1.2-1.4c-0.4-0.3-0.6-0.7-0.6-1.3
	c0-1,0.6-1.5,1.1-1.5c0.5,0,0.8,0.3,0.8,1c0,0.4-0.1,0.9-0.4,1.3h0.1c0.3,0,0.6-0.1,0.8-0.3c0-0.1,0.1-0.1,0.2-0.2
	c0.4-0.6,1.1-1,1.9-1c0.6,0,1.2,0.3,1.3,0.8c0.1,0.7-0.5,0.8-0.7,0.8c-0.2,0-0.5,0-0.5-0.2s0.4-0.1,0.4-0.5c0-0.3-0.3-0.4-0.6-0.4
	c-0.9,0-1.5,1.2-1.4,2.2c0,0.4,0.2,0.8,0.6,0.8c0.3,0,0.7-0.4,0.9-1c0.1-0.4,0.5-0.7,0.8-0.7c0.1,0,0.2,0,0.3,0.2
	c0,0.1,0,0.3-0.2,0.9c-0.2,0.4-0.2,0.6-0.2,0.8c0,0.4,0.2,0.6,0.4,0.8c0,0,0.1,0.1,0.1,0.1c0,0.1,0,0.2-0.2,0.2c0,0-0.1,0-0.1,0
	c-0.7-0.3-1-0.7-1.1-1.2c-0.3,0.3-0.6,0.5-1,0.5c-0.6,0-1.2-0.5-1.3-1.2c0-0.3,0-0.6,0.1-0.9c-0.3,0.2-0.6,0.3-0.8,0.3h-0.2
	c-0.6,0.9-1.2,1.5-1.7,1.7c-0.2,0.1-0.3,0.1-0.5,0.1c-0.1,0-0.2,0-0.3-0.1c-0.1-0.2-0.2-0.5-0.3-0.9C19.3,18.6,18.4,19,18,19
	c-0.5,0-0.7-0.3-0.8-0.7v-0.5c0.1-1,0.5-1.6,0.5-1.8c0,0,0-0.1-0.1-0.1c-0.3,0-1.4,1.1-1.6,1.8L16,18.3c-0.1,0.4-0.5,0.7-0.8,0.7
	c-0.1,0-0.2,0-0.3-0.2v-0.2l0.1-0.3c-0.6,0.4-1.2,0.7-1.4,0.7c-0.4,0-0.6-0.2-0.7-0.6c-0.3,0.4-0.6,0.6-1,0.6
	c-0.5,0-0.9-0.3-1.2-0.8c-0.3,0.4-0.7,0.7-1.1,1c-0.6,0.4-1.4,0.7-2.2,0.7c-0.8,0-1.5-0.4-1.8-0.8c-0.6-0.5-0.9-1.3-0.9-2
	c-0.3-2.2,1.1-5.1,3.2-6.4C8.3,10.4,8.8,10.2,9.3,10.2L9.3,10.2z M22.3,14.6c-0.1,0-0.2,0.2-0.2,0.5c0,0.4,0.2,0.8,0.4,1
	c0.1-0.2,0.1-0.5,0.1-0.8C22.6,14.9,22.4,14.6,22.3,14.6L22.3,14.6z"/>
</svg>
