<svg id="Layer_1" data-name="Layer 1" xmlns="http://www.w3.org/2000/svg" width="250" height="250" viewBox="0 0 250 250"><defs><style>.cls-1{fill:#5bb5ac;}.cls-2{fill:#fff;}</style></defs><circle class="cls-1" cx="125" cy="125" r="125"/><path class="cls-2" d="M188,119.58,183.52,74.8a10.15,10.15,0,0,0-9.38-9.1l-43.18-3a10.13,10.13,0,0,0-7.75,2.84L65,122.22a10.13,10.13,0,0,0-.19,14.32l.09.09,47.71,47.7a10.12,10.12,0,0,0,14.22.1L185,127.84a10.17,10.17,0,0,0,3-8.26Zm-33.35,14.59-7.29,12.35-14.25-9.8a1.36,1.36,0,0,0-2.13,1.22l1.19,17.25H117.83L119,137.94a1.36,1.36,0,0,0-2.13-1.22l-14.25,9.8-7.29-12.35,15.89-7.95a1.37,1.37,0,0,0,0-2.44l-15.89-8,7.29-12.35,14.25,9.8a1.36,1.36,0,0,0,2.13-1.22l-1.19-17.25h14.33L131,112.06a1.36,1.36,0,0,0,2.13,1.22l14.25-9.8,7.29,12.35L136.32,125ZM164,93.08A7.07,7.07,0,1,1,171.07,86,7.07,7.07,0,0,1,164,93.08Z"/></svg>