<?xml version="1.0" encoding="utf-8"?>
<!-- Generator: Adobe Illustrator 25.3.1, SVG Export Plug-In . SVG Version: 6.00 Build 0)  -->
<svg version="1.1" id="Layer_1" xmlns="http://www.w3.org/2000/svg" xmlns:xlink="http://www.w3.org/1999/xlink" x="0px" y="0px"
	 viewBox="0 0 250 250" style="enable-background:new 0 0 250 250;" xml:space="preserve">
<style type="text/css">
	.st0{fill:#3AB561;}
	.st1{fill:#202020;}
	.st2{fill:#FFFFFF;}
	.st3{fill:#4A95F7;}
	.st4{fill:#6CC6FF;}
	.st5{fill:#CCEEFF;}
</style>
<circle class="st1" cx="125" cy="125" r="125"/>
<g id="cCG8dr.tif_1_">
	<g>
		<path class="st2" d="M44.5,113.1c0.4-1.5,0.8-3,1.3-4.5c1.7-4.5,4.6-7.8,9.4-9c1-0.3,2.2,0,3.3,0c0.1,0.1,0.1,0.3,0.2,0.4
			c-0.4,0.5-0.8,0.9-1.2,1.4c-3.8,3.7-6.9,7.8-8.1,13c-0.5,2.1-0.4,4.2,0.9,6.3c0.5-0.8,0.9-1.5,1.4-2.2
			c5.4-8.5,12.4-15.2,21.7-19.2c4.2-1.8,8.5-2.4,12.9-0.8c5.2,1.9,7.2,5.8,5,10.8c-4.7,11.1-12.9,18-25.2,19.5
			c-3.3,0.4-6.7,0-10.1,0.1c-0.5,0-1.2,0.1-1.3,0.4c-1.8,4-3.2,8.1-2.7,12.6c0.5,4.6,3,7.1,8.8,6.7c6.9-0.5,12.6-3.7,17.8-7.9
			c6.4-5,11.1-11.4,14.1-18.9c0.2-0.6,0-1.4-0.1-2.1c-0.1-0.9-0.5-1.9-0.3-2.8c0.7-3.4,2.6-6.2,5.4-8.3c2.6-1.9,5.4-0.6,5.8,2.6
			c0.3,3-0.7,5.7-2,8.3c-0.3,0.5-0.5,1-1,1.8c0.8-0.1,1.4-0.1,1.9-0.3c1.1-0.5,2.1-1,3.2-1.6c1.2-0.7,2.3-2.3,3.9-0.4
			c2,2.3,2.7,5.1,1.5,6.8c-2.3,3.1-4.7,6.1-6.9,9.3c-1.4,2-2.6,4-3.6,6.2c-0.4,0.8-0.1,2-0.1,3c1-0.2,2.1-0.2,2.8-0.7
			c1.6-1,3.1-2.2,4.5-3.6c2.8-2.8,5.5-5.6,7-9.5c2-4.9,5.2-9.2,9.5-12.5c1.2-0.9,2.6-1.7,4-2c1.3-0.2,3,0.1,4.1,0.8
			c5.2,3.4,5.8,5.9,3.1,11.5c-1.9,3.9-4.6,7.1-8.6,9.1c-2.5,1.2-4.8,1.2-7-0.8c-0.2-0.2-0.4-0.3-0.7-0.5c-0.1,0.2-0.2,0.3-0.3,0.5
			c-0.5,2-1.3,4.3,0.3,5.9c1.7,1.7,4,1.1,6,0.4c6.6-2.4,11.3-7.1,15-12.8c6.7-10.3,13.4-20.5,20.1-30.8c0.7-1,1.5-1.9,2.2-2.8
			c1-1.3,2.1-1.1,3.3-0.3c2.4,1.7,3.1,4.7,1.5,7.4c-1.5,2.6-3.3,5.2-5.1,7.6c-4.6,5.9-9.4,11.6-13.9,17.6c-2.2,3-4,6.3-5.9,9.6
			c-0.5,0.8-0.7,1.8-0.8,2.8c-0.2,2,1.1,3,2.8,2c1.9-1.2,3.7-2.6,5.4-4.2c4.3-4.1,7.2-9.3,10.4-14.2c5.8-9,11.8-17.8,17.7-26.7
			c0,0,0.1-0.1,0.1-0.1c1.1-1,1.6-3,3.7-2.2c1.8,0.7,3.4,3.4,3,5.3c-0.3,1.4-0.8,2.9-1.7,4c-5.1,6.9-10.3,13.8-15.7,20.5
			c-3.1,3.9-6,7.7-8.1,12.2c-0.5,1.1-0.9,2.3-1,3.4c-0.2,1.9,1.1,2.9,2.8,1.9c1.8-1.1,3.6-2.3,5-3.9c2.8-3.2,5.5-6.5,7.9-10
			c2.8-4.2,5.9-8,10.2-10.7c2.5-1.6,5-1.7,7.4,0.3c1.3,1.1,3,1.7,3.7,3.6c0.3,0.8,1.5,1.2,2.2,1.8c1,0.9,1.1,1.7,0.2,3
			c-2.5,3.7-4.9,7.5-7.3,11.4c-0.5,0.9-0.8,2-0.9,3.1c-0.1,0.6,0.2,1.4,0.6,1.7c0.4,0.2,1.4,0.1,1.7-0.3c2.4-2.2,4.7-4.3,6.9-6.7
			c1.3-1.4,2.4-3,3.6-4.5c0.8-1.1,1.5-1.1,2.3,0c1,1.5,1.1,3.2,0.2,4.6c-2.3,3.8-5.1,7.3-9.1,9.4c-1.3,0.7-2.8,1.1-4.2,1.2
			c-3,0.2-4.8-1.4-5.6-4.9c-1,0.9-1.8,1.8-2.8,2.5c-4.5,3.8-8.8,3-11.9-2c-0.1-0.2-0.3-0.5-0.4-0.6c-1.4,1.1-2.7,2.3-4.1,3.2
			c-5.4,3.5-9.5,2.2-12.5-4.2c-0.4,0.7-0.6,1.5-1.2,1.9c-1.8,1.3-3.6,2.8-5.6,3.6c-4,1.6-7.4-0.1-8.9-4.1c-0.2-0.4-0.3-0.8-0.5-1.5
			c-0.6,0.5-1.1,0.9-1.7,1.3c-3.8,2.9-8,4.9-13,4.7c-4.2-0.2-7.5-2-9.9-5.6c-0.9,0.7-1.7,1.5-2.7,2.2c-2.2,1.7-4.7,2.9-7.5,3.4
			c-5.1,0.8-8.5-2.3-7.6-7.3c0.5-2.8,1.8-5.5,3-8.2c1-2.2,2.4-4.1,3.7-6.2c-1.3-0.6-2.6-1.1-4-1.8c-1,1.6-2,3.3-3.1,5
			c-4,5.9-7.8,12-13.2,16.8c-4.6,4-9.6,7.2-15.8,8.2c-9.7,1.6-16.4-4.3-19.4-10.5c-1.9-3.8-1.3-7.9-0.3-11.8
			c0.4-1.8,1.1-3.6,1.6-5.5c0.1-0.4,0.2-1.1,0-1.3c-2-2.1-2.6-4.7-3.4-7.3C44.5,115.9,44.5,114.5,44.5,113.1z M56.7,124.3
			c0.1,0.2,0.3,0.3,0.4,0.5c0.6,0,1.2,0.1,1.8,0.1c10.2,0.2,22.6-7.8,26.4-17.2c0.4-1.1,0.7-2.3,0.9-3.5c0.2-1.9-0.6-2.8-2.6-2.5
			c-1.4,0.2-2.7,0.7-4,1.3c-6,2.9-11.3,6.9-15.6,11.9C61.4,117.9,59.1,121.1,56.7,124.3z M190.5,123.3c-0.6-0.1-1.3-0.5-1.6-0.3
			c-1.2,0.7-2.3,1.4-3.3,2.3c-4.6,4.3-8,9.4-10.7,15c-0.4,0.8-0.3,1.9-0.4,2.9c0.9-0.4,2-0.6,2.7-1.2c5.4-4.5,9.8-9.8,12.6-16.3
			C190,125.1,190.1,124.4,190.5,123.3z M120.5,134.3c3.5-0.2,11.1-9.5,10.7-13C128.1,122.2,121,130.8,120.5,134.3z"/>
	</g>
</g>
</svg>
