<svg id="Layer_1" data-name="Layer 1" xmlns="http://www.w3.org/2000/svg" width="250" height="250" viewBox="0 0 250 250"><defs><style>.cls-1{fill:#a647dd;}.cls-2{fill:#fff;}</style></defs><circle class="cls-1" cx="125" cy="125" r="125"/><path class="cls-2" d="M198.09,102.32a10.77,10.77,0,0,0-15.21,0l-10.79,10.8V84.71a10.7,10.7,0,0,0-3.15-7.61L158.8,67a10.69,10.69,0,0,0-7.61-3.15H89.63A10.78,10.78,0,0,0,78.87,74.57V175.43a10.78,10.78,0,0,0,10.76,10.76h71.7a10.78,10.78,0,0,0,10.76-10.76V143.56l26-26A10.76,10.76,0,0,0,198.09,102.32ZM150.58,71a3.94,3.94,0,0,1,3.15,1l10.14,10.14a3.91,3.91,0,0,1,1,3.15H150.58Zm14.34,104.45a3.59,3.59,0,0,1-3.59,3.59H89.63A3.59,3.59,0,0,1,86,175.43V74.57A3.59,3.59,0,0,1,89.63,71h53.78V88.91A3.58,3.58,0,0,0,147,92.49h17.93V120.3l-10.58,10.58L149.27,136a3.64,3.64,0,0,0-.86,1.4l-5.07,15.21a3.58,3.58,0,0,0,4.53,4.54L163.08,152a3.52,3.52,0,0,0,1.4-.87l.44-.43v24.7Zm-8-36.94,5.07,5.07L160,145.49l-7.6,2.54,2.53-7.61Zm10.14,0L162,133.42l17.23-17.25,5.07,5.07Zm26-26-3.7,3.69-5.07-5.07,3.7-3.7a3.59,3.59,0,1,1,5.07,5.08Z"/><path class="cls-2" d="M147,99.66H96.8a3.59,3.59,0,1,0,0,7.17H147a3.59,3.59,0,1,0,0-7.17Z"/><path class="cls-2" d="M132.65,114H96.8a3.59,3.59,0,1,0,0,7.17h35.85a3.59,3.59,0,1,0,0-7.17Z"/><path class="cls-2" d="M132.65,128.35H96.8a3.59,3.59,0,1,0,0,7.17h35.85a3.59,3.59,0,1,0,0-7.17Z"/><path class="cls-2" d="M132.65,142.69H96.8a3.59,3.59,0,1,0,0,7.17h35.85a3.59,3.59,0,1,0,0-7.17Z"/><path class="cls-2" d="M147,164.68H125.48a3.59,3.59,0,0,0,0,7.17H147a3.59,3.59,0,1,0,0-7.17Z"/></svg>