<svg id="Layer_1" data-name="Layer 1" xmlns="http://www.w3.org/2000/svg" width="250" height="250" viewBox="0 0 250 250"><defs><style>.cls-1{fill:#f27224;}.cls-2{fill:#fff;}</style></defs><g id="Icon"><circle class="cls-1" cx="125" cy="125" r="125"/><path class="cls-2" d="M66.5,119.09v-20c0-.73.08-1.17,1.35-1.17H84.77c3,0,4.59,2.51,5.76,7.25l1,3.76h2.88c.51-10.72,1-15.38,1-15.38s-7.25.8-11.52.8H62.13L50.51,94v3.1l3.93.73c2.74.51,3.4,1.1,3.62,3.61,0,0,.22,7.4.22,19.61s-.22,19.53-.22,19.53c0,2.22-.88,3-3.62,3.54l-3.93.73V148l11.62-.36H81.49c4.37,0,14.51.36,14.51.36.22-2.66,1.71-14.72,1.92-16H95.19l-2.88,6.6c-2.3,5.17-5.62,5.54-9.33,5.54H72c-3.68,0-5.47-1.49-5.47-4.67V122.53s8.06,0,10.87.22c2.07.15,3.32.74,4,3.62l.88,3.83h3.17l-.21-9.69.43-9.77H82.47l-1,4.3c-.66,2.81-1.1,3.32-4,3.61-3.25.37-10.94.3-10.94.3v.14Zm43.85-17.89c-1,4.59-2.07,8.13-5.69,10.49a12.51,12.51,0,0,1-5.32,2.08v2.81h6.59v22.7c0,6.35,4.23,9.47,9.84,9.47,4.37,0,8.86-1.85,10.43-5.68l-1.57-2a7.44,7.44,0,0,1-6,3.11c-3.25,0-5-2.23-5-7.84V116.28l10.94.81.58-5-11.52.44V101.27l-3.2-.07Zm23.37,34.93-2.81.08c.14,1.63.22,3.68.22,5.61a38.31,38.31,0,0,1-.22,4.74,37.43,37.43,0,0,0,11.3,2.07c7.69,0,13.82-3.68,13.82-10.93,0-12.43-18.63-10.58-18.63-18.93,0-3.46,3.1-4.81,6.5-4.81,2.66,0,4.88,1,5.32,2.37l1.85,5.55,2.74-.15c.22-3,.36-6.35.8-9.11-2.36-1-7.32-1.63-10.42-1.63-7.25,0-13.09,3.17-13.09,10.27,0,12.36,18.19,9.84,18.19,18.93,0,3.24-2,5.54-6.49,5.54-4.15,0-6.2-2.15-7-4.3l-2.05-5.3Zm44.55,8.52c-4.27,12-9.52,15.07-14.23,15.07-2,0-3-.88-3.25-2.3l-1.1-5.76-3.1.15c-.58,3.39-1.17,7.15-2,10.25a13.4,13.4,0,0,0,7.37,2.15c5.11,0,12.84-.66,19.92-17.48l11.89-28c1-2.3,1.32-2.52,4.13-3.62l1.54-.58v-2.59l-7,.37-7.52-.37v2.59l1.93.58c1.93.59,2.81,1.32,2.81,2.66a7.4,7.4,0,0,1-.59,2.37c-1.1,2.81-8,19.49-9.81,23l1.83-.66c-3.25-8-8.18-21.49-8.94-23.76a3.8,3.8,0,0,1-.22-1.17c0-1.17.81-2.15,2.59-2.52l2.44-.51v-2.59l-10.1.37-8-.37v2.59l1.32.44c1.86.59,2.3,1.1,3.4,3.69,6.12,14,9,21.7,12.91,31.74l1.83-5.72Z"/></g></svg>