<?xml version="1.0" encoding="utf-8"?>
<!-- Generator: Adobe Illustrator 25.3.1, SVG Export Plug-In . SVG Version: 6.00 Build 0)  -->
<svg version="1.1" id="Layer_1" xmlns="http://www.w3.org/2000/svg" xmlns:xlink="http://www.w3.org/1999/xlink" x="0px" y="0px"
	 viewBox="0 0 250 250" style="enable-background:new 0 0 250 250;" xml:space="preserve">
<style type="text/css">
	.st0{fill:#3AB561;}
	.st1{fill:#202020;}
	.st2{fill:#FFFFFF;}
	.st3{fill:#4A95F7;}
	.st4{fill:#6CC6FF;}
	.st5{fill:#CCEEFF;}
</style>
<circle class="st0" cx="125" cy="125" r="125"/>
<g>
	<g>
		<path class="st2" d="M105.4,139.1c0.2,0,0.3,0,0.5,0c0.4-0.2,0.9,0,1.3-0.2c2.3-0.1,4.2-1,6-2.3c0.2-0.1,0.3-0.3,0.6-0.4
			c0.5-0.1,0.5-1.1,1.2-0.7c0.4,0.2,0.7,0.7,1,1.1c3.9,4.7,7.8,9.4,11.7,14.1c0,0,0,0.1,0,0.1c0.7,0.8-0.3,1.1-0.5,1.6
			c-4.6,4.6-9.9,7.7-16.4,8.7c-0.3,0.2-0.6,0-0.9,0.1c-0.2,0-0.4,0-0.7,0c-0.4,0.2-0.9,0-1.3,0.1c-0.3,0-0.5,0-0.8,0
			c-0.5,0.1-1.1,0.1-1.6,0c-1.6-0.1-3.2-0.1-4.8,0c-0.5,0-1,0.1-1.4,0c-0.2,0-0.4,0-0.7,0c-0.4-0.2-0.8,0-1.1-0.1
			c-0.2,0-0.5-0.1-0.7-0.1c0-0.1,0-0.1,0.1-0.1c0.1-0.1,0.2,0,0.3-0.1c-0.1,0-0.2,0-0.3,0c-0.1,0-0.2,0.1-0.3,0.2
			c-1.7-0.4-3.5-0.6-5.2-1.2c-4.3-1.3-8-3.5-11.6-6.1c-0.9-0.6-1.6-1.4-2.5-2.1c-0.6-0.9-1.2-1.6-2.1-2.1c-2.6-2.7-4.7-5.9-6.4-9.3
			c-1.5-3-2.5-6.2-3.1-9.5c-0.1-0.5,0.1-1-0.2-1.5c-0.2-0.4,0-0.8-0.1-1.1c0-0.2,0-0.3,0-0.5c-0.1-0.4-0.1-0.8,0-1.2
			c0.1-1.4,0.1-2.8,0-4.3c0-0.4-0.1-0.8,0-1.2c0-0.2,0-0.4,0-0.6c0.2-0.4,0-0.8,0.1-1.1c0.1-0.2,0.1-0.3,0.2-0.5
			c0.1,0.3,0.1,0.5,0.1,0.7c0-0.3,0.1-0.6-0.1-0.9c-0.2-0.8,0.1-1.5,0.3-2.3c0.5-2.3,1.2-4.5,2.1-6.7c1.3-3,2.8-5.8,4.8-8.4
			c0.7-1,1.4-2,2.3-2.8c0.9-0.5,1.6-1.3,2.1-2.1c1.7-1.6,3.5-3,5.5-4.2c3.8-2.3,7.9-3.9,12.2-4.7c0.9-0.2,1.9-0.3,2.8-0.5
			c0.4-0.2,0.8,0,1.1-0.1c0.3,0,0.5,0,0.8,0c1.5-0.1,3.1-0.1,4.6,0c0.3,0,0.6,0,0.8,0c0.4,0.2,0.8,0,1.1,0.1c0.2,0,0.3,0,0.5,0
			c0.3,0.2,0.7,0,1,0.2c1.5,0.4,3,0.7,4.5,1.1c4.4,1.3,8.4,3.4,12.2,6c1.1,0.8,1.1,0.8,0.3,1.9c-3.4,5.3-6.9,10.5-10.3,15.8
			c-0.6,1-0.8,1-1.8,0.4c-1.7-1-3.4-2-5.3-2.9c-0.3-0.5-0.9-0.4-1.4-0.6c-2.9-0.8-5.8-0.7-8.7,0.2c-0.1,0-0.3,0.1-0.4,0.2
			c-3.3,1.4-6,3.4-7.8,6.5c-1.1,1.8-2,3.8-2.2,5.9c-0.2,0.3,0,0.6-0.1,0.9c-0.1,0.2-0.1,0.4,0,0.6c-0.1,0.8-0.1,1.7,0,2.5
			c0,0.2,0,0.4,0,0.6c0.2,0.3,0,0.7,0.1,0.9c0.2,2.6,1.3,4.9,3,6.9c2,2.4,4.7,3.9,7.8,4.6c0.1,0,0.3,0,0.4,0c0.3,0.2,0.6,0,0.9,0.2
			c0.1,0,0.2,0,0.3,0c0.5,0.2,1.1-0.1,1.7,0.1c0.8,0.1,1.7,0.1,2.5,0C104.2,139.1,104.8,139.3,105.4,139.1z"/>
		<path class="st2" d="M120,80.8c-0.6,0.8-1.1,1.6-1.9,2.3c-0.5,0.4-1.1,0.7-1.7,0.9c-0.4,0.1-0.8,0.1-1.2,0
			c-1.9-0.2-3.4-1.7-3.6-3.8c-0.1-0.4-0.1-0.7,0-1.1c0.2-1.7,1.4-3.1,2.9-3.5c2-0.5,3.6,0.1,4.7,1.7c0.3,0.5,0.6,0.9,0.9,1.4
			c0.1,0.1,0.2,0.1,0.3,0.2c0.3,0,0.6,0,0.9,0c17.8,0,35.6,0,53.4,0c0.2,0,0.5,0,0.7,0c0.1-0.1,0.1-0.1,0.2-0.1
			c0.6,0,0.9-0.5,1.2-0.9c0.6-1.3,1.5-2.1,3.1-2.3c2.2-0.4,4.1,1.1,4.7,2.8c0.7,1.9-0.1,4.2-1.8,5c-1.1,0.5-1.3,1.2-1.3,2.3
			c0,4.4,0,8.7,0,13.1c0,0.9,0.2,1.6,1.2,1.9c2.1,0.8,3,3.9,1.6,5.9c-0.4,0.3-0.8,0.6-1,1.1c-0.5,0.6-1.2,0.6-1.8,0.9
			c-0.5,0.1-0.9,0.1-1.4,0c-1.1-0.2-1.9-0.7-2.5-1.6c-0.3-0.4-0.8-0.8-1.2-1.1c-0.9-0.2-1.8,0-2.6-0.1c-0.3,0-0.6,0.1-1-0.1
			c-3.3,0-6.6,0-9.9-0.1c-4.4,0-8.9,0-13.3,0c-0.7,0-1.2,0.2-1.7,0.6c-0.9,0.8-1.9,1.6-2.8,2.5c-0.6,0.6-0.4,1.7,0.4,2
			c1,0.5,1.9,1.1,2.3,2.2c0.1,1,0.6,1.4,1.6,1.4c4.2,0,8.3,0,12.5,0c0.2,0,0.4,0,0.5-0.2c0.5-0.2,0.8-0.6,1-1
			c0.9-1.8,2.2-2.8,4.2-2.6c1.6,0.1,3.3,1.1,3.8,3.5c0,0.1,0.1,0.2,0.1,0.3c0.1,0.3,0.1,0.6,0,0.9c-0.3,1.2-0.9,2.2-1.9,3
			c-0.4,0.3-0.6,0.7-0.7,1.2c0,1.2-0.1,2.5,0,3.7c-0.1,2.1-0.1,4.2,0,6.2c-0.1,1.4,0,2.8,0,4.3c0,0.5,0.3,0.9,0.6,1.1
			c1,0.8,1.6,1.9,1.9,3.1c0.1,0.3,0.1,0.6,0,0.9c-0.4,1.9-1.5,3.2-3.4,3.8c-0.1,0.1-0.2,0.1-0.3,0c-0.3-0.1-0.6-0.1-0.9,0
			c-0.1,0-0.2,0-0.3,0c-1.7-0.2-2.7-1.4-3.3-2.8c-0.2-0.5-0.6-0.8-1-1.2c-0.1,0-0.1-0.1-0.2-0.2c-2.2,0-4.4-0.1-6.6,0.1
			c-2.1,0-4.2,0-6.3,0c-0.3,0-0.6-0.1-0.9,0.1c-0.4,0.9-0.6,1.9-1.3,2.7c-0.4,0.4-0.9,0.8-1.4,1c-0.3,0.1-0.6,0.3-0.7,0.7
			c0,0.1-0.1,0.2-0.2,0.2c-0.1,0.2-0.1,0.5-0.1,0.8c0,6.9,0,13.7,0,20.6c0,0.2,0,0.5,0.1,0.7c0.1,0.1,0.1,0.2,0.2,0.2
			c0.1,0.7,0.7,0.8,1.2,1.1c0.7,0.5,1.4,1,1.7,1.8c0,0.1-0.1,0.1,0,0.2c0.5,1.1,0.4,2.3,0.1,3.4c-0.7,2.2-4.5,3.6-6.5,1.4
			c-0.4-0.5-0.9-0.9-1.2-1.5c-0.3-0.5-0.8-0.8-1.2-0.8c-2.6,0-5.3-0.2-7.9,0c-0.5-0.1-1.1-0.1-1.6,0c-2.7-0.2-5.5,0-8.2,0
			c-0.6,0-0.9,0.5-1.1,0.9c-1.1,1.8-2.7,2.7-4.8,2.4c-1.2-0.1-2-1-2.6-1.9c-0.4-0.5-0.6-1.1-0.6-1.8c-0.1-0.4-0.1-0.7,0-1.1
			c0.2-1.5,1.2-3.3,3.8-3.7c0.3-0.1,0.6-0.1,0.9,0c1.6,0.3,2.7,1.2,3.4,2.7c0.2,0.4,0.5,0.8,1,0.7c2.5,0.1,5.1,0.1,7.6,0
			c1.2,0.1,2.4,0.1,3.5,0c2.3,0.1,4.6,0.1,6.9,0c0.6-0.1,0.9-0.4,1.1-0.9c0.4-0.9,1.2-1.6,2.1-2.1c0.3-0.1,0.5-0.5,0.7-0.7
			c0.1-0.2,0.1-0.5,0.1-0.7c0-7.2,0-14.3,0-21.5c0-0.2,0.1-0.5-0.1-0.7c-0.5-0.8-1.4-0.8-2-1.5c-0.7-0.8-1.2-1.6-1.1-2.7
			c0-1.1,0.2-2.2,1-3c0.4,0,0.6-0.4,0.7-0.7c0.4-0.4,1.1-0.5,1.6-0.7c0.5-0.1,1.1-0.1,1.6,0c1.2,0.3,2.1,1,2.8,1.9
			c0.3,0.3,0.5,0.7,1,0.6c0.8,0.1,1.7,0.1,2.5,0c0.2,0,0.4,0,0.6,0.1c2.6,0.1,5.2,0.1,7.8,0c1-0.2,2.1,0.1,3.1-0.1
			c1.4-1,2.9-2,4.3-3.1c0.3-0.2,0.3-0.5,0.3-0.8c0-4.3,0-8.6,0-13c0-0.6-0.3-0.7-0.7-0.8c-1.5-0.3-2.6-1.2-3.3-2.6
			c-0.2-0.5-0.6-0.7-1.2-0.7c-4.3,0-8.6,0-13,0c-0.7,0-1.1,0.4-1.3,0.9c-0.8,1.4-2.1,2.2-3.7,2.5c-0.8,0.2-2.9-0.9-3.4-1.7
			c-0.4-0.6-0.7-1.2-0.9-1.8c0.2-0.6,0.2-1.2,0-1.8c0.4-1.4,1.4-2.4,2.6-3.2c0.4-0.2,0.6-0.6,0.6-1.1c0.1,0,0.1,0,0.1,0.1
			c0.1-0.1,0.1-0.2,0-0.3c0-0.1-0.1,0.1-0.2,0c-0.2-0.6-0.5-1-1.1-1.4c-1-0.6-1.7-1.6-2.1-2.7c0.2-0.7,0.2-1.3,0-2
			c0.6-1.7,1.5-3,3.5-3.2c0.5,0,0.9,0,1.4,0c1.4,0.2,2.3,1,2.9,2.2c0.2,0.4,0.4,0.9,0.6,1.3c0.3,0.1,0.5,0.1,0.8,0.1
			c8.9,0,17.9,0,26.8,0c0.3,0,0.5,0.1,0.8-0.1c0.5-1.6,1.2-2.9,2.9-3.5c0.2-0.1,0.3-0.3,0.5-0.4c0.1-0.1,0.2-0.2,0.2-0.3
			c0-2.3,0.1-4.6,0-6.9c0-0.4,0-0.8,0-1.2c0.1-2.2,0.1-4.5,0-6.7c0-0.1-0.1-0.2-0.2-0.2c-0.8-0.9-1.7-1.8-2.5-2.7
			c-0.6-1-1.3-1.6-2.5-1.6c-17.6,0-35.2,0-52.8,0c-0.3,0-0.7,0-0.8,0c17.8,0,35.8,0,53.8,0c0.3,0,0.8-0.3,1,0.3
			c-0.3,0.1-0.7,0.1-1.1,0.1c-17.8,0-35.7,0-53.5,0C120.7,80.7,120.3,80.6,120,80.8z"/>
		<path class="st2" d="M175.6,80.6c-0.3-0.3-0.7-0.2-1.1-0.2c-17.8,0-35.6,0-53.4,0c-0.3,0-0.6,0-1.1,0c0.4-0.3,0.7-0.2,1-0.2
			c18,0,35.9,0,53.9,0c1.1,0,1.6,0.6,2.2,1.2c0.1,0.1,0,0.3,0,0.4c-0.4-0.4-0.8-0.7-1.2-1.1C175.8,80.7,175.6,80.7,175.6,80.6z"/>
		<path class="st2" d="M175.6,80.6c0.1,0.1,0.1,0.1,0.2,0.2c-18.6,0-37.2,0-55.8,0c0.3-0.4,0.7-0.2,1-0.2c17.9,0,35.8,0,53.7,0
			C175,80.6,175.3,80.6,175.6,80.6z"/>
		<path class="st2" d="M120,78.9c0,0,0-0.1,0-0.1c18.2,0,36.4,0,54.6,0c0.3,0,0.7,0,1,0c0,0-0.1,0.1-0.1,0.1
			c-0.3,0.2-0.6,0.1-0.9,0.1c-17.9,0-35.8,0-53.8,0C120.5,79.1,120.2,79.2,120,78.9z"/>
		<path class="st2" d="M161.9,114.2c0.1,0.1,0.4,0,0.2,0.2c-0.2,0.2-0.5,0.2-0.8,0.2c-4.1,0-8.1,0-12.2,0c-0.8,0-1.4-0.3-1.8-1
			c-0.1-0.2-0.2-0.4,0-0.6c0.3,0.9,0.9,1.2,1.8,1.2C153.4,114.1,157.6,114.2,161.9,114.2z"/>
		<path class="st2" d="M176.2,103.7c-0.2,0.3-0.5,0.2-0.7,0.2c-9,0-17.9,0-26.9,0c-0.2,0-0.5,0.1-0.7-0.1
			C157.3,103.7,166.7,103.7,176.2,103.7z"/>
		<path class="st2" d="M142.6,142.8c0.3,0.3,0.2,0.7,0.2,1c0,6.9,0,13.9,0,20.8c0,0.3,0.1,0.7-0.2,1
			C142.6,158,142.6,150.4,142.6,142.8z"/>
		<path class="st2" d="M144.3,143c0,0,0.1-0.1,0.1-0.1c0,7.5,0,15,0,22.5c-0.1,0-0.1,0-0.1-0.1c0,0-0.1-0.1-0.1-0.1
			c-0.1-0.1-0.1-0.3-0.1-0.4c0-7.2,0-14.3,0-21.5C144.2,143.2,144.2,143.1,144.3,143z"/>
		<path class="st2" d="M97,109.4c-0.5-0.2,0-0.3,0.1-0.3c1-0.4,2-0.6,3.1-0.8c2.4-0.4,4.8,0,7.1,0.7c0.1,0,0.8,0,0.3,0.5
			c-0.9-0.2-1.9-0.5-2.8-0.7c-0.2-0.1-0.4-0.1-0.5-0.1c-0.4-0.1-0.8-0.1-1.2-0.1c-0.5,0-1,0-1.4,0c-0.5,0-0.9,0-1.4,0.1
			c-0.2,0.1-0.5,0-0.6,0.2C98.6,108.8,97.9,109.3,97,109.4z"/>
		<path class="st2" d="M179.5,84.5c0,0,0.1,0.1,0.1,0.1c0.2,0.2,0.1,0.5,0.1,0.8c0,2,0.1,4.1-0.1,6.1c0,0.4,0,0.8,0,1.3
			c0.2,2.2,0,4.4,0.1,6.7c0,0.2-0.1,0.3-0.2,0.3C179.6,94.6,179.6,89.5,179.5,84.5z"/>
		<path class="st2" d="M161.7,138.4c0,0,0.1,0.1,0.1,0.1c-4.6,0-9.2,0-13.9,0c0.2-0.3,0.5-0.1,0.8-0.1c2.2,0,4.3,0,6.5-0.1
			C157.4,138.3,159.5,138.2,161.7,138.4z"/>
		<path class="st2" d="M179.6,99.6c0.3-0.7,0.1-1.4,0.1-2.1c0-1.6,0-3.2,0.1-4.9c0.1,0.1,0.2,0.3,0.2,0.4c0,2.1,0,4.3,0,6.4
			c0,0.1,0.2,0.6-0.3,0.3C179.6,99.8,179.6,99.7,179.6,99.6z"/>
		<path class="st2" d="M128.2,169.4c-2.5,0.1-5.1,0.2-7.6,0C123.2,169.4,125.7,169.4,128.2,169.4z"/>
		<path class="st2" d="M100.7,161.5c0.5-0.4,1.1-0.2,1.6-0.2c1.1,0,2.1-0.2,3.2,0.2c-0.4,0.2-0.9,0-1.3,0.2c-0.8-0.1-1.5-0.1-2.3,0
			C101.5,161.5,101.1,161.7,100.7,161.5z"/>
		<path class="st2" d="M138.7,169.4c-2.3,0.2-4.6,0.1-6.9,0C134.1,169.4,136.4,169.4,138.7,169.4z"/>
		<path class="st2" d="M75.3,149.8c0-0.1,0.1-0.3,0.2-0.2c0.7,0.7,1.5,1.3,2.1,2.1c0,0,0,0.2-0.1,0.2
			C76.7,151.3,76,150.6,75.3,149.8z"/>
		<path class="st2" d="M77.4,96.4c0.1,0.2,0.2,0.3,0,0.5c-0.6,0.6-1.2,1.2-1.8,1.8c-0.2,0.2-0.3,0.1-0.3-0.1
			C75.9,97.8,76.7,97,77.4,96.4z"/>
		<path class="st2" d="M65.5,122.4c0.3,1.4,0.3,2.8,0,4.3c-0.2-0.4,0-0.8-0.2-1.1c0.1-0.7,0.1-1.4,0-2.2
			C65.5,123,65.3,122.7,65.5,122.4z"/>
		<path class="st2" d="M168.5,129.4c-0.2-2.1-0.1-4.1,0-6.2C168.5,125.3,168.5,127.3,168.5,129.4z"/>
		<path class="st2" d="M147.3,172c0-0.1-0.1-0.2-0.1-0.2c0.3-1,0.3-2.1,0-3.1c0-0.1,0.1-0.1,0.1-0.2c0.1,0.3,0.2,0.6,0.2,0.9
			c0.4,0.6,0.2,1.2,0.2,1.8C147.6,171.4,147.5,171.7,147.3,172z"/>
		<path class="st2" d="M104.5,86.8c-1.5,0-3.1,0-4.6,0C101.4,86.5,102.9,86.5,104.5,86.8z"/>
		<path class="st2" d="M139.4,103.3c0.5,0.5,0.5,1.4,0,2C139.4,104.7,139.4,104,139.4,103.3z"/>
		<path class="st2" d="M139.4,113.8c0.5,0.5,0.5,1.3,0,1.8C139.4,115,139.4,114.4,139.4,113.8z"/>
		<path class="st2" d="M172.4,105.7c1.2,0,2.4-0.2,3.6,0.2C174.8,105.7,173.6,106,172.4,105.7z"/>
		<path class="st2" d="M151.3,136.8c-1,0-2.1,0.2-3.1-0.1c0.9-0.1,1.9,0.1,2.8-0.2C151.1,136.4,151.2,136.6,151.3,136.8z"/>
		<path class="st2" d="M162.2,136.6c-1,0.3-2.1,0.1-3.1,0.1c0.1-0.3,0.3-0.2,0.6-0.2C160.5,136.6,161.3,136.6,162.2,136.6z"/>
		<path class="st2" d="M127.3,152.5c-0.1-0.1-0.1-0.2,0-0.3c0.5-0.3,0.6-0.8,0.5-1.3C128.8,151.7,127.6,152,127.3,152.5z"/>
		<path class="st2" d="M104.2,161.7c0.4-0.1,0.9-0.1,1.3-0.2c0.5,0,1.1,0,1.6,0C106.2,161.9,105.2,161.6,104.2,161.7z"/>
		<path class="st2" d="M182.9,107.6c0.1-0.6,0.6-0.9,1-1.3c0,0.1,0.1,0.1,0.1,0.2C183.7,107,183.4,107.3,182.9,107.6z"/>
		<path class="st2" d="M100.7,161.5c0.4,0.1,0.8,0.1,1.2,0.2c-0.9,0-1.7,0.2-2.6-0.1C99.8,161.5,100.3,161.5,100.7,161.5z"/>
		<path class="st2" d="M144.3,100.2c-0.5,0.2-0.9,0.2-1.4,0C143.4,100,143.9,100,144.3,100.2z"/>
		<path class="st2" d="M86.8,125.8c-0.2-0.8-0.2-1.7,0-2.5C86.9,124.2,86.8,125,86.8,125.8z"/>
		<path class="st2" d="M65.4,125.5c0.1,0.4,0.1,0.8,0.2,1.1c0,0.4,0,0.8,0,1.2C65.2,127.1,65.4,126.3,65.4,125.5z"/>
		<path class="st2" d="M141.1,134.8c0.3,0.5-0.2,0.7-0.5,0.9c-0.2,0.2-0.2-0.1-0.2-0.2C140.6,135.2,140.8,135,141.1,134.8z"/>
		<path class="st2" d="M65.5,122.4c-0.1,0.3-0.1,0.6-0.2,1c0.1-0.7-0.2-1.5,0.1-2.2C65.5,121.6,65.5,122,65.5,122.4z"/>
		<path class="st2" d="M147.7,171.1c0-0.6,0.2-1.2-0.2-1.8C148.2,169.9,147.9,170.5,147.7,171.1z"/>
		<path class="st2" d="M105.4,139.1c-0.6,0.2-1.2,0.2-1.9,0.1C104.2,138.9,104.8,139.2,105.4,139.1z"/>
		<path class="st2" d="M101.1,139.3c-0.6,0-1.1,0.1-1.7-0.1C100,139.2,100.6,138.9,101.1,139.3z"/>
		<path class="st2" d="M166,142.5c0.1,0,0.2,0,0.4,0c0.3-0.1,0.6-0.1,0.9,0c0.1,0,0.2,0,0.4,0C167.1,142.8,166.6,142.7,166,142.5z"
			/>
		<path class="st2" d="M144.3,134.1c-0.5,0-1.1,0-1.6,0C143.3,133.8,143.8,133.9,144.3,134.1z"/>
		<path class="st2" d="M101.5,108.5c0.5,0,1,0,1.4,0c0.1,0,0.1,0.1,0.1,0.1c-0.6,0-1.1,0-1.7,0C101.4,108.6,101.5,108.5,101.5,108.5
			z"/>
		<path class="st2" d="M142.6,109.4c0.1-0.1,0.1-0.2,0.2-0.4c0,0.4,0,0.7,0,1c-0.2,0-0.1-0.3-0.2-0.3
			C142.6,109.5,142.6,109.5,142.6,109.4C142.6,109.4,142.6,109.4,142.6,109.4z"/>
		<path class="st2" d="M128.9,171.1c0.5-0.1,1.1-0.1,1.6,0C130,171.1,129.5,171.1,128.9,171.1z"/>
		<path class="st2" d="M101.5,108.5c0,0-0.1,0.1-0.1,0.1c-0.3-0.1-0.6,0-0.8,0c-0.2,0.1-0.4,0.1-0.5,0
			C100.5,108.3,101,108.6,101.5,108.5z"/>
		<path class="st2" d="M179.7,108.5c0.5,0,0.9,0,1.4,0C180.7,108.8,180.2,108.8,179.7,108.5z"/>
		<path class="st2" d="M103.1,108.7c0,0-0.1-0.1-0.1-0.1c0.4,0,0.9-0.2,1.3,0.1c-0.2,0.1-0.3,0.1-0.5,0
			C103.5,108.7,103.3,108.7,103.1,108.7z"/>
		<path class="st2" d="M96.7,161.3c0.2-0.5,0.6-0.3,1-0.3c-0.3,0.3-0.6,0-0.8,0.3C96.8,161.3,96.7,161.3,96.7,161.3z"/>
		<path class="st2" d="M108,161.5c0.4-0.2,0.9-0.2,1.3-0.1C108.9,161.7,108.4,161.5,108,161.5z"/>
		<path class="st2" d="M65.9,118.7c0.4,0.3,0.2,0.7,0.1,1c0-0.3,0-0.6,0-0.9C65.9,118.8,65.9,118.7,65.9,118.7z"/>
		<path class="st2" d="M115.2,84c0.4,0,0.8,0,1.2,0C116,84.2,115.6,84.2,115.2,84z"/>
		<path class="st2" d="M107.2,138.9c-0.4,0.2-0.9,0.2-1.3,0.2C106.3,138.8,106.8,139,107.2,138.9z"/>
		<path class="st2" d="M97.5,161.4c0.4,0,0.8,0,1.1,0.1C98.3,161.5,97.9,161.6,97.5,161.4z"/>
		<path class="st2" d="M65.7,119.4c0,0.4,0,0.8-0.1,1.1C65.6,120.1,65.4,119.7,65.7,119.4z"/>
		<path class="st2" d="M99,86.8C98.7,87,98.3,87,97.9,87C98.2,86.7,98.7,86.8,99,86.8z"/>
		<path class="st2" d="M65.5,128.4c0.2,0.4,0.2,0.7,0.1,1.1C65.4,129.2,65.6,128.8,65.5,128.4z"/>
		<path class="st2" d="M111.6,79.2c0,0.4,0,0.7,0,1.1C111.3,79.9,111.3,79.5,111.6,79.2z"/>
		<path class="st2" d="M100,108.7c0.2,0,0.4,0,0.5,0c-0.3,0.3-0.7,0.1-1.1,0.2C99.7,108.8,99.9,108.7,100,108.7z"/>
		<path class="st2" d="M111.6,169.7c0,0.4,0,0.7,0,1.1C111.3,170.4,111.3,170.1,111.6,169.7z"/>
		<path class="st2" d="M106.4,87c-0.4,0-0.8,0-1.1-0.1C105.7,86.8,106.1,86.7,106.4,87z"/>
		<path class="st2" d="M87,127.4c-0.2-0.3-0.2-0.6-0.1-0.9C87.2,126.8,87,127.1,87,127.4z"/>
		<path class="st2" d="M107.9,87.2c-0.3,0-0.7,0-1-0.2C107.2,87,107.6,86.9,107.9,87.2z"/>
		<path class="st2" d="M86.9,122.7c0-0.3,0-0.6,0.1-0.9C87,122.1,87.2,122.5,86.9,122.7z"/>
		<path class="st2" d="M109.9,161.3c0.3-0.2,0.6-0.2,0.9-0.1C110.6,161.5,110.3,161.3,109.9,161.3z"/>
		<path class="st2" d="M116.2,166c-0.3,0-0.6,0-0.9,0C115.6,165.7,115.9,165.7,116.2,166z"/>
		<path class="st2" d="M171,115.3c0-0.3,0-0.6,0-0.9C171.3,114.7,171.3,115,171,115.3z"/>
		<path class="st2" d="M171,138.7c0-0.3,0-0.6,0-0.9C171.3,138.2,171.3,138.5,171,138.7z"/>
		<path class="st2" d="M99.1,139.1c-0.3,0-0.6,0-0.9-0.2C98.5,139,98.9,138.8,99.1,139.1z"/>
		<path class="st2" d="M103.8,108.7c0.2,0,0.4,0,0.5,0c0.1,0.1,0.3,0.1,0.4,0.2C104.4,108.8,104.1,109,103.8,108.7z"/>
		<path class="st0" d="M182.4,80.9c-1.3,1.4-2.6,1.4-3.6,0.2c-0.8-1-0.6-2.3,0.3-3.1c0.9-0.8,2.2-0.7,3,0.3c0.2,0.2,0.3,0.4,0.4,0.6
			C183.1,79.6,182.9,80.3,182.4,80.9z"/>
		<path class="st0" d="M143.8,167.9c0.3,0.2,0.7,0.2,1,0.5c0.8,0.6,1.2,1.6,0.9,2.5c-0.3,0.9-1.3,1.6-2.2,1.6
			c-0.9-0.1-1.8-0.8-2-1.7c-0.2-1,0.2-2,1.1-2.5c0.2-0.1,0.5-0.2,0.7-0.3C143.5,167.8,143.6,167.8,143.8,167.9z"/>
		<path class="st0" d="M169,138.7c-0.1,0.3-0.2,0.5-0.4,0.8c-0.5,0.8-1.6,1.2-2.5,0.9c-0.9-0.3-1.6-1.2-1.5-2.2c0-1,0.7-1.8,1.6-2.1
			c0.9-0.3,1.9,0.2,2.4,1c0.1,0.2,0.2,0.5,0.3,0.7C169.2,138.2,169.2,138.4,169,138.7z"/>
		<path class="st0" d="M118,80c-0.2,0.3-0.3,0.7-0.5,1c-0.6,0.8-1.5,1.1-2.4,0.8c-0.9-0.3-1.6-1.3-1.5-2.2c0.1-0.9,0.8-1.8,1.7-2
			c0.9-0.2,1.9,0.2,2.4,1.1c0.1,0.2,0.2,0.5,0.3,0.7C118.2,79.6,118.1,79.8,118,80z"/>
		<path class="st0" d="M118,170.5c-0.3,1-1,1.7-2,2c-0.1,0.2-0.3,0.2-0.4,0c-1.7-0.6-2.5-2-1.7-3.3c0.4-0.8,1.1-1.3,2-1.2
			c0.9,0,1.5,0.5,1.9,1.3c0.1,0.2,0.2,0.4,0.3,0.6C118.1,170.1,118.1,170.3,118,170.5z"/>
		<path class="st0" d="M180.3,106.5c-1-0.2-1.7-0.7-2-1.8c-0.2-1,0.4-2.1,1.4-2.5c1-0.4,2.1,0,2.6,0.9c0.2,0.2,0.3,0.5,0.4,0.8
			c0.2,0.2,0.2,0.4,0,0.6c-0.3,1-1,1.7-2,2C180.6,106.7,180.4,106.7,180.3,106.5z"/>
		<path class="st0" d="M169,115.1c-0.1,0.2-0.1,0.4-0.2,0.6c-0.5,1-1.5,1.5-2.5,1.3c-1-0.2-1.7-1.1-1.7-2.1c0-1,0.7-2,1.7-2.2
			c1-0.2,2,0.3,2.5,1.3c0.1,0.2,0.2,0.4,0.2,0.6C169.2,114.6,169.2,114.8,169,115.1z"/>
		<path class="st0" d="M143.5,117c-0.2-0.1-0.5-0.1-0.7-0.2c-1-0.4-1.6-1.5-1.4-2.5c0.2-1,1.1-1.7,2.1-1.7c1,0,2,0.7,2.2,1.7
			c0.2,1-0.3,2-1.3,2.5c-0.2,0.1-0.5,0.2-0.7,0.3C143.7,117.2,143.6,117.2,143.5,117z"/>
		<path class="st0" d="M144.8,136.5c1.2,1.2,1.3,2.4,0.4,3.3c-0.6,0.6-1.4,0.9-2.3,0.6c-0.9-0.3-1.4-0.9-1.5-1.8
			c-0.1-0.9,0.3-1.6,1-2.1c0.2-0.1,0.5-0.2,0.7-0.4C143.8,135.6,144.3,136,144.8,136.5z"/>
		<path class="st0" d="M141.4,104.3c0-1.2,1-2.2,2.2-2.2c1.2,0,2.2,1,2.2,2.2c0,1.2-1,2.1-2.2,2.1
			C142.4,106.5,141.4,105.5,141.4,104.3z"/>
		<path class="st2" d="M120,78.9c18.2,0,36.4,0,54.6,0c0.3,0,0.6,0,0.9,0c0.1,0,0.2,0,0.3,0.1c0,0,0,0.1,0,0.1
			c-0.2,0-0.3,0.1-0.5,0.1c-18.1,0-36.3,0-54.4,0C120.5,79.1,120.2,79.3,120,78.9z"/>
		<path class="st2" d="M148.1,104.1c9.3,0,18.5,0,27.8,0c0,0,0,0.1,0,0.1C166.7,104.2,157.4,104.2,148.1,104.1
			C148.1,104.1,148.1,104.1,148.1,104.1z"/>
		<path class="st2" d="M144.3,143c0,0.1,0,0.1,0,0.2c-0.1,0.2-0.1,0.5-0.1,0.7c0,6.9,0,13.8,0,20.8c0,0.3-0.1,0.5,0.1,0.8l0,0
			c0,0.1-0.1,0.4-0.2,0.2c-0.2-0.2-0.1-0.6-0.1-0.9c0-7,0-14,0-21c0-0.3,0-0.6,0.1-0.8C144.2,142.6,144.3,142.9,144.3,143z"/>
		<path class="st2" d="M142.9,165.2c0-7.3,0-14.6,0-21.9c0,0,0.1,0,0.1,0C143,150.6,143,157.9,142.9,165.2
			C143,165.2,143,165.2,142.9,165.2z"/>
		<path class="st2" d="M167.1,119.2c0,4.6,0,9.3,0,13.9c0,0-0.1,0-0.1,0C167,128.5,167,123.9,167.1,119.2
			C167,119.2,167,119.2,167.1,119.2z"/>
		<path class="st2" d="M179.7,91.4c0-2.3,0-4.6-0.1-6.9c0.1-0.1,0.2-0.1,0.2,0.1c0,2.2,0,4.3,0,6.5
			C179.9,91.2,179.8,91.3,179.7,91.4z"/>
		<path class="st2" d="M161.7,138.4c-2.2,0-4.3,0-6.5,0c0.1-0.2,0.3-0.2,0.5-0.2c2,0,4,0,6,0C161.8,138.2,162.2,138.2,161.7,138.4z"
			/>
		<path class="st2" d="M182.4,80.9c0.3-0.7,0.4-1.3,0.2-2.1c0,0,0-0.1,0.1-0.1c0.6,0.1,0.5,0.7,0.4,1
			C182.9,80.1,183.1,80.8,182.4,80.9z"/>
		<path class="st2" d="M144.8,136.5c-0.5-0.2-1.1-0.4-1.7-0.3c-0.1,0-0.3-0.1-0.2-0.2C143.4,135.4,144.6,135.8,144.8,136.5z"/>
		<path class="st2" d="M118,170.5c0-0.2,0-0.4,0-0.6c0.1,0,0.1-0.4,0.2-0.1c0.1,0.3,0,0.7-0.1,1.1C118,170.8,118,170.7,118,170.5z"
			/>
		<path class="st2" d="M118,80c0-0.2,0-0.4,0-0.6c0.1,0,0.1-0.4,0.2-0.1c0.1,0.3,0,0.7,0,1.1C117.9,80.3,118,80.1,118,80z"/>
		<path class="st2" d="M182.7,104.6c0-0.2,0-0.4,0-0.6c0.1,0,0.1-0.4,0.2-0.1c0.1,0.3,0,0.7,0,1.2c0,0-0.2-0.1-0.1-0.2
			C182.8,104.8,182.8,104.7,182.7,104.6z"/>
		<path class="st2" d="M169,138.7c0-0.3,0-0.5,0-0.8c0.1,0,0.1-0.4,0.2-0.1c0.1,0.3,0.1,0.7,0,1C169.1,139.1,169.1,138.7,169,138.7z
			"/>
		<path class="st2" d="M115.6,172.5c0.1,0,0.3,0,0.4,0c0,0.1,0.4,0.1,0.1,0.2c-0.3,0.1-0.6,0-0.9-0.1
			C115.3,172.6,115.4,172.5,115.6,172.5z"/>
		<path class="st2" d="M180.3,106.5c0.1,0,0.3,0,0.4,0c0.1,0,0.3,0.1,0.2,0.2c-0.3,0.1-0.7,0-1,0C180,106.5,180.2,106.6,180.3,106.5
			z"/>
		<path class="st2" d="M141.2,169.7c0,0.3,0,0.7,0,1.2C141.1,170.4,141.1,170.1,141.2,169.7z"/>
		<path class="st2" d="M169,115.1c0-0.2,0-0.4,0-0.6c0,0,0-0.1,0-0.1c0,0,0.1-0.1,0.1-0.1c0.1,0.3,0.1,0.7,0,1c0,0-0.1,0-0.1,0
			C169.1,115.2,169.1,115.1,169,115.1z"/>
		<path class="st2" d="M143.5,117c0.1,0,0.2,0,0.2,0c0.1,0,0.3,0.1,0.5,0.1c-0.5,0.1-0.8,0.1-1.3,0C143.2,117.1,143.4,117,143.5,117
			z"/>
		<path class="st2" d="M143.8,167.9c-0.1,0-0.3,0-0.4,0c0-0.1-0.4-0.1-0.1-0.2c0.3-0.1,0.6,0,1,0C144.1,168,143.9,167.9,143.8,167.9
			z"/>
		<path class="st2" d="M141.2,103.8c0.1,0.4,0.1,0.6,0,1C141.1,104.5,141.1,104.2,141.2,103.8z"/>
		<path class="st2" d="M143.9,112.4c-0.3,0-0.5,0-1,0C143.4,112.2,143.7,112.2,143.9,112.4z"/>
		<path class="st2" d="M141.3,137.9c0,0.3,0,0.6,0,0.9C141,138.5,141.2,138.2,141.3,137.9z"/>
		<path class="st2" d="M178,103.8c0.2,0.3,0.1,0.6,0.1,0.9C177.9,104.4,178,104.1,178,103.8z"/>
		<path class="st2" d="M167.3,142.5c-0.3,0.1-0.6,0.1-0.9,0C166.7,142.2,167,142.2,167.3,142.5z"/>
		<path class="st2" d="M144.3,165.4c-0.3-0.2-0.2-0.5-0.2-0.8c0-6.9,0-13.7,0-20.6c0-0.3-0.1-0.6,0.2-0.8c0,7,0,14,0,21
			C144.3,164.6,144.3,165,144.3,165.4z"/>
	</g>
</g>
</svg>
