<?xml version="1.0" encoding="utf-8"?>
<!-- Generator: Adobe Illustrator 25.3.1, SVG Export Plug-In . SVG Version: 6.00 Build 0)  -->
<svg version="1.1" id="Layer_1" xmlns="http://www.w3.org/2000/svg" xmlns:xlink="http://www.w3.org/1999/xlink" x="0px" y="0px"
	 viewBox="0 0 250 250" style="enable-background:new 0 0 250 250;" xml:space="preserve">
<style type="text/css">
	.st0{fill:#3AB561;}
	.st1{fill:#202020;}
	.st2{fill:#FFFFFF;}
	.st3{fill:#4A95F7;}
	.st4{fill:#6CC6FF;}
	.st5{fill:#CCEEFF;}
</style>
<circle class="st3" cx="125" cy="125" r="125"/>
<g>
	<path class="st2" d="M61.7,72.1c0.1,0,0.2,0,0.3,0c4.2,1.7,7.5,4.7,11.2,7.2c4.1,2.7,8.2,5.6,12.2,8.5c0.9,0.7,1.7,0.7,2.7,0.1
		c4.3-2.5,8.9-4.6,13.6-6.2c7.4-2.5,15.1-3.8,23-3.8c8.2,0,16.1,1.2,23.8,3.9c4.4,1.5,8.7,3.4,12.6,5.9c1.2,0.7,2,0.7,3.2-0.1
		c6.9-4.8,13.8-9.6,20.6-14.4c0.9-0.6,1.9-0.7,2.8-1.1c0.1,0,0.2,0,0.3,0c0.6,0.4,0.9,1,1.1,1.7c1.1,3.7,1.7,7.6,2.2,11.4
		c0.9,8.2,0.4,16.3-1.7,24.2c-0.4,1.6-0.9,3.2-1.5,4.8c-0.4,1-0.3,1.9,0.2,2.8c2.1,4,3.5,8.2,4.9,12.5c1.1,3.5,0.8,6.6-1.1,9.8
		c-3.3,5.5-7.2,10.6-11.5,15.4c-1.5,1.6-3.1,3-4.6,4.5c-0.9,0.9-1.8,0.9-2.9,0.3c-1.2-0.8-2.3-1.7-3.5-2.4c-0.4-0.2-0.7-0.8-1.1-0.4
		c-0.4,0.3-0.3,0.8-0.2,1.2c0.3,1.8,0.2,3.5,0.2,5.3c0,1.2-0.5,2-1.5,2.7c-6.6,4.3-13.7,7.5-21.2,9.7c-8.7,2.6-17.6,2.4-26.5,2.3
		c-8.3-0.1-16.1-2.2-23.7-5.3c-4.4-1.8-8.5-4.1-12.5-6.6c-1.3-0.8-1.8-1.8-1.8-3.3c0-1.8,0.3-3.5,0.3-5.3c0-0.9-0.2-1.2-1.1-0.6
		c-1.3,0.8-2.5,1.8-3.7,2.6c-1.1,0.7-2,0.7-2.9-0.2c-6.7-5.9-12.2-12.8-16.4-20.8c-0.6-1.2-0.9-2.5-1.3-3.7c0-0.5,0-1,0-1.5
		c0.4-5.9,2.5-11.2,5.1-16.4c0.5-1.1,0.5-2.1,0.1-3.1c-1.5-4.1-2.4-8.3-2.9-12.6c-0.9-6.7-0.8-13.4,0.4-20c0.4-2.4,0.8-4.7,1.5-7
		C60.5,73.3,60.8,72.5,61.7,72.1z"/>
	<path class="st3" d="M182.8,84.2c0.5,3.4,0.7,6.7,0.6,10c-0.2,7-1.7,13.8-4.4,20.3c-0.5,1.2-0.5,2.1,0.2,3.3
		c2.6,4.6,4.6,9.5,6,14.6c0.2,0.7,0.2,1.2-0.2,1.8c-2.8,5.6-6.4,10.7-10.7,15.3c-0.6,0.7-1.1,0.6-1.7,0.1c-4.3-3.1-8.7-6.1-13-9.1
		c-0.4,0.1-0.4,0.4-0.4,0.6c0.3,5.9,0.6,11.9,1,17.8c0.1,1.2-0.2,1.9-1.3,2.6c-22.9,12.4-45.8,12.4-68.7-0.1c-0.9-0.5-1.2-1-1.1-2.1
		c0.4-6.2,0.7-12.4,1-18.7c-0.7-0.1-1,0.4-1.4,0.7c-3.9,2.8-7.9,5.5-11.8,8.3c-0.8,0.6-1.3,0.6-1.9-0.2c-4.3-4.6-7.9-9.8-11.1-15.2
		c-0.4-0.7-0.3-1.3-0.1-2c1.4-5.2,3.6-10,6.2-14.6c0.5-0.9,0.5-1.6,0.1-2.6c-3.9-9.9-5.4-20-3.9-30.6c0.6-0.1,0.8,0.3,1.2,0.5
		c6,4.2,12,8.4,18,12.6c0.9,0.6,1.4,0.6,2.3,0c11.7-8.4,24.9-12.4,39.3-11.8c12.7,0.4,24.3,4.4,34.6,11.9c0.9,0.6,1.4,0.6,2.3,0
		c5.8-4.1,11.7-8.2,17.6-12.4C181.8,84.9,182.2,84.6,182.8,84.2z"/>
	<path class="st2" d="M153.7,112.6c0.3,6.4-1.3,12.9-5.4,18.7c-6.8,9.7-19.2,14.2-30.8,11.4c-11.7-2.9-20.4-12.7-21.8-24.5
		c-0.4-3.6-0.2-7.2-0.2-10.7c0-1.1,0.5-0.9,1.2-0.7c7.5,2.3,15.1,3.6,23,4.1c11,0.6,21.7-0.7,32.3-3.8c1.8-0.5,1.8-0.6,1.8,1.3
		C153.7,109.5,153.7,110.7,153.7,112.6z"/>
	<path class="st3" d="M128.6,119c2.3,1.6,4.3,3,6.2,4.5c1,0.8,1.4,0.5,2-0.4c1-1.4,1.8-2.9,2.1-4.7c0.1-0.9,0.6-1.2,1.5-1.3
		c1.5-0.2,2.9-0.5,4.3-0.8c1.7-0.3,1.8-0.3,1.5,1.5c-1.1,6.9-4.7,12.2-10.8,15.6c-13.6,7.5-30.3-0.9-32.4-16.3c-0.1-1,0-1.4,1.2-1.2
		c1.6,0.4,3.2,0.7,4.8,0.9c0.9,0.1,1.3,0.5,1.6,1.4c2.3,7.7,9.3,12,17.2,10.7c1-0.2,1.4-0.5,1.3-1.6
		C128.8,124.7,128.7,122.1,128.6,119z"/>
</g>
</svg>
