<svg id="Layer_1" data-name="Layer 1" xmlns="http://www.w3.org/2000/svg" width="250" height="250" viewBox="0 0 250 250"><defs><style>.cls-1{fill:#dd505e;}.cls-2{fill:#fff;}</style></defs><circle class="cls-1" cx="125" cy="125" r="125"/><path class="cls-2" d="M152.52,189.12a12.48,12.48,0,0,1-3.07-.39L66.7,166.57a12.16,12.16,0,0,1-8.52-14.75l9.1-34.88A4,4,0,1,1,75,119l-9.1,34.89a4.09,4.09,0,0,0,2.86,5L151.51,181a4,4,0,0,0,4.87-2.82l2.82-11.4a4,4,0,0,1,7.8,1.93l-2.84,11.45A12.05,12.05,0,0,1,152.52,189.12Z"/><path class="cls-2" d="M174.17,157H91.23a12.05,12.05,0,0,1-12-12V83.44a12.05,12.05,0,0,1,12-12h82.94a12.05,12.05,0,0,1,12,12V145A12.05,12.05,0,0,1,174.17,157ZM91.23,79.42a4,4,0,0,0-4,4V145a4,4,0,0,0,4,4h82.94a4,4,0,0,0,4-4V83.44a4,4,0,0,0-4-4Z"/><path class="cls-2" d="M105.94,108.85a10.7,10.7,0,1,1,10.71-10.7A10.71,10.71,0,0,1,105.94,108.85Zm0-13.37a2.68,2.68,0,1,0,2.68,2.67A2.68,2.68,0,0,0,105.94,95.48Z"/><path class="cls-2" d="M83.31,151.56a4,4,0,0,1-2.84-1.18,4,4,0,0,1,0-5.68l24.19-24.19a9.39,9.39,0,0,1,13.27,0L124.4,127l19.87-23.85a9.4,9.4,0,0,1,7.15-3.38A8.63,8.63,0,0,1,158.6,103l26.64,31.08a4,4,0,0,1-6.1,5.23l-26.65-31.09a1.63,1.63,0,0,0-1-.48,1.34,1.34,0,0,0-1,.49l-22.69,27.24a4,4,0,0,1-5.92.27l-9.58-9.58a1.16,1.16,0,0,0-1.92,0L86.15,150.38A4,4,0,0,1,83.31,151.56Z"/></svg>